<?xml version="1.0" encoding="UTF-8"?><svg id="Livello_1" xmlns="http://www.w3.org/2000/svg" viewBox="0 0 180 180"><rect width="180" height="180" fill="#f7f5f2"/><path d="M99.4,122.55c0,4.1-1.08,7.48-3.25,10.15-2.17,2.67-5.4,4.64-9.69,5.92-4.29,1.28-9.65,1.91-16.07,1.91s-11.24-.58-15.14-1.74c-3.91-1.16-6.75-2.84-8.53-5.05-1.78-2.2-2.67-4.86-2.67-7.95,0-3.25.85-5.8,2.55-7.66,1.7-1.86,4.02-3.17,6.96-3.94v-1.28c-1.7-.85-3.02-1.95-3.94-3.31-.93-1.35-1.39-3.03-1.39-5.05,0-3.02.97-5.32,2.9-6.9,1.93-1.58,4.41-2.76,7.43-3.54v-.46c-3.56-1.7-6.32-4.14-8.3-7.31-1.97-3.17-2.96-6.85-2.96-11.02s.93-7.7,2.78-10.79c1.86-3.09,4.49-5.51,7.89-7.25,3.4-1.74,7.35-2.61,11.83-2.61,2.16,0,4.2.19,6.09.58,1.89.39,3.65.97,5.28,1.74v-1.04c0-2.32.54-4.24,1.62-5.74,1.08-1.51,2.86-2.26,5.34-2.26h8.93v8.12h-11.37v3.83c2.16,1.86,3.85,4.1,5.05,6.73,1.2,2.63,1.8,5.53,1.8,8.7,0,4.02-.93,7.6-2.78,10.73-1.86,3.13-4.49,5.57-7.89,7.31-3.4,1.74-7.39,2.61-11.95,2.61-1.01,0-2.01-.06-3.02-.17-1.01-.12-1.93-.25-2.78-.41-1.93.54-3.73,1.33-5.4,2.38-1.66,1.04-2.49,2.49-2.49,4.35s.85,2.98,2.55,3.6c1.7.62,3.91.93,6.61.93h12.76c7.43,0,12.82,1.41,16.19,4.23,3.36,2.82,5.05,6.71,5.05,11.66ZM90.7,123.24c0-2.4-.91-4.31-2.73-5.74-1.82-1.43-5.05-2.15-9.69-2.15h-19.96c-1.93.85-3.35,1.95-4.24,3.31-.89,1.35-1.33,2.96-1.33,4.82,0,2.63.99,4.87,2.96,6.73,1.97,1.86,5.32,2.78,10.04,2.78h8.59c5.18,0,9.2-.81,12.07-2.44,2.86-1.62,4.29-4.06,4.29-7.31ZM69.93,88.55c3.94,0,7.08-.95,9.4-2.84,2.32-1.89,3.48-4.82,3.48-8.76v-3.25c0-3.94-1.16-6.86-3.48-8.76-2.32-1.89-5.45-2.84-9.4-2.84s-7.08.95-9.4,2.84c-2.32,1.9-3.48,4.82-3.48,8.76v3.25c0,3.94,1.16,6.87,3.48,8.76,2.32,1.9,5.45,2.84,9.4,2.84Z" fill="#5a554e"/><path d="M135.02,115.93h-11.6c-3.17,0-5.61-.93-7.31-2.78-1.7-1.86-2.55-4.22-2.55-7.08v-41.89h-9.86v-8.12h5.57c2.01,0,3.38-.41,4.12-1.22.73-.81,1.1-2.22,1.1-4.24v-11.14h8.35v16.59h13.11v8.12h-13.11v43.63h12.18v8.12Z" fill="#5a554e"/><circle cx="152.08" cy="152.4" r="2.61" fill="#cbbfa5"/></svg>